<?xml version="1.0" encoding="UTF-8" standalone="no"?>
<!-- Created with Inkscape (http://www.inkscape.org/) -->

<svg
   version="1.1"
   id="svg2"
   xml:space="preserve"
   width="373.31079"
   height="324.1116"
   viewBox="0 0 373.31079 324.1116"
   sodipodi:docname="Demokrati_Stanovy.svg"
   inkscape:version="1.1.2 (b8e25be833, 2022-02-05)"
   xmlns:inkscape="http://www.inkscape.org/namespaces/inkscape"
   xmlns:sodipodi="http://sodipodi.sourceforge.net/DTD/sodipodi-0.dtd"
   xmlns="http://www.w3.org/2000/svg"
   xmlns:svg="http://www.w3.org/2000/svg"><defs
     id="defs6"><clipPath
       clipPathUnits="userSpaceOnUse"
       id="clipPath22"><path
         d="M 0,841.89 H 595.276 V 0 H 0 Z"
         id="path20" /></clipPath><clipPath
       clipPathUnits="userSpaceOnUse"
       id="clipPath36"><path
         d="M -1,842.89 H 596.276 V 778.172 H -1 Z"
         id="path34" /></clipPath><clipPath
       clipPathUnits="userSpaceOnUse"
       id="clipPath40"><path
         d="M 595.276,841.89 H 0 v -62.717 h 595.276 z"
         id="path38" /></clipPath><linearGradient
       x1="0"
       y1="0"
       x2="1"
       y2="0"
       gradientUnits="userSpaceOnUse"
       gradientTransform="matrix(-29.667483,-75.908539,-73.062209,12.838965,36.083515,848.87201)"
       spreadMethod="pad"
       id="linearGradient24048"><stop
         style="stop-opacity:1;stop-color:#4f178f"
         offset="0"
         id="stop24038" /><stop
         style="stop-opacity:1;stop-color:#4f178f"
         offset="0.1"
         id="stop24040" /><stop
         style="stop-opacity:1;stop-color:#fc0d5c"
         offset="0.7"
         id="stop24042" /><stop
         style="stop-opacity:1;stop-color:#fc0d5c"
         offset="0.72220019"
         id="stop24044" /><stop
         style="stop-opacity:1;stop-color:#fc0d5c"
         offset="1"
         id="stop24046" /></linearGradient><linearGradient
       x1="0"
       y1="0"
       x2="1"
       y2="0"
       gradientUnits="userSpaceOnUse"
       gradientTransform="matrix(-29.667483,-75.908539,-73.062209,12.838965,589.71086,848.87201)"
       spreadMethod="pad"
       id="linearGradient24074"><stop
         style="stop-opacity:1;stop-color:#12e6d9"
         offset="0"
         id="stop24064" /><stop
         style="stop-opacity:1;stop-color:#12e6d9"
         offset="0.3"
         id="stop24066" /><stop
         style="stop-opacity:1;stop-color:#4f178f"
         offset="0.9"
         id="stop24068" /><stop
         style="stop-opacity:1;stop-color:#4f178f"
         offset="0.90740006"
         id="stop24070" /><stop
         style="stop-opacity:1;stop-color:#4f178f"
         offset="1"
         id="stop24072" /></linearGradient><clipPath
       clipPathUnits="userSpaceOnUse"
       id="clipPath24136"><path
         d="M 0,0 H 595.276 V 841.89 H 0 Z"
         id="path24134" /></clipPath><clipPath
       clipPathUnits="userSpaceOnUse"
       id="clipPath24156"><path
         d="M 0,0 H 595.276 V 841.89 H 0 Z"
         id="path24154" /></clipPath><clipPath
       clipPathUnits="userSpaceOnUse"
       id="clipPath24172"><path
         d="M 0,0 H 595.276 V 841.89 H 0 Z"
         id="path24170" /></clipPath><clipPath
       clipPathUnits="userSpaceOnUse"
       id="clipPath24196"><path
         d="M 0,0 H 595.276 V 841.89 H 0 Z"
         id="path24194" /></clipPath><linearGradient
       x1="0"
       y1="0"
       x2="1"
       y2="0"
       gradientUnits="userSpaceOnUse"
       gradientTransform="matrix(-260.74938,-667.16492,-642.14834,112.84248,-115.69341,897.56445)"
       spreadMethod="pad"
       id="linearGradient24234"><stop
         style="stop-opacity:1;stop-color:#4f178f"
         offset="0"
         id="stop24224" /><stop
         style="stop-opacity:1;stop-color:#4f178f"
         offset="0.1"
         id="stop24226" /><stop
         style="stop-opacity:1;stop-color:#fc0d5c"
         offset="0.7"
         id="stop24228" /><stop
         style="stop-opacity:1;stop-color:#fc0d5c"
         offset="0.72220019"
         id="stop24230" /><stop
         style="stop-opacity:1;stop-color:#fc0d5c"
         offset="1"
         id="stop24232" /></linearGradient><linearGradient
       x1="0"
       y1="0"
       x2="1"
       y2="0"
       gradientUnits="userSpaceOnUse"
       gradientTransform="matrix(-260.74938,-667.16492,-642.14834,112.84248,980.85126,612.5957)"
       spreadMethod="pad"
       id="linearGradient24260"><stop
         style="stop-opacity:1;stop-color:#12e6d9"
         offset="0"
         id="stop24250" /><stop
         style="stop-opacity:1;stop-color:#12e6d9"
         offset="0.3"
         id="stop24252" /><stop
         style="stop-opacity:1;stop-color:#4f178f"
         offset="0.9"
         id="stop24254" /><stop
         style="stop-opacity:1;stop-color:#4f178f"
         offset="0.90740006"
         id="stop24256" /><stop
         style="stop-opacity:1;stop-color:#4f178f"
         offset="1"
         id="stop24258" /></linearGradient><clipPath
       clipPathUnits="userSpaceOnUse"
       id="clipPath24270"><path
         d="M 0,0 H 595.276 V 841.89 H 0 Z"
         id="path24268" /></clipPath><clipPath
       clipPathUnits="userSpaceOnUse"
       id="clipPath24290"><path
         d="M 0,0 H 595.276 V 841.89 H 0 Z"
         id="path24288" /></clipPath><clipPath
       clipPathUnits="userSpaceOnUse"
       id="clipPath24306"><path
         d="M 0,0 H 595.276 V 841.89 H 0 Z"
         id="path24304" /></clipPath><clipPath
       clipPathUnits="userSpaceOnUse"
       id="clipPath24330"><path
         d="M 0,0 H 595.276 V 841.89 H 0 Z"
         id="path24328" /></clipPath><clipPath
       clipPathUnits="userSpaceOnUse"
       id="clipPath24354"><path
         d="M 0,0 H 595.276 V 841.89 H 0 Z"
         id="path24352" /></clipPath><clipPath
       clipPathUnits="userSpaceOnUse"
       id="clipPath24362"><path
         d="M -54.1495,873.63 H 617.281 V 741.677 H -54.1495 Z"
         id="path24360" /></clipPath><clipPath
       clipPathUnits="userSpaceOnUse"
       id="clipPath24366"><path
         d="M 616.281,872.63 H -53.15 V 742.678 h 669.431 z"
         id="path24364" /></clipPath><clipPath
       clipPathUnits="userSpaceOnUse"
       id="clipPath48358"><path
         d="M -52.0797,135.021 H 630.555 V -21.635 H -52.0797 Z"
         id="path48356" /></clipPath><clipPath
       clipPathUnits="userSpaceOnUse"
       id="clipPath48362"><path
         d="M -51.08,-20.635 H 629.555 V 134.021 H -51.08 Z"
         id="path48360" /></clipPath></defs><sodipodi:namedview
     id="namedview4"
     pagecolor="#505050"
     bordercolor="#eeeeee"
     borderopacity="1"
     inkscape:pageshadow="0"
     inkscape:pageopacity="0"
     inkscape:pagecheckerboard="0"
     showgrid="false"
     fit-margin-top="0"
     fit-margin-left="0"
     fit-margin-right="0"
     fit-margin-bottom="0"
     inkscape:zoom="0.22645911"
     inkscape:cx="-397.42273"
     inkscape:cy="538.7286"
     inkscape:window-width="1920"
     inkscape:window-height="1017"
     inkscape:window-x="-8"
     inkscape:window-y="-8"
     inkscape:window-maximized="1"
     inkscape:current-layer="g8" /><g
     id="g8"
     inkscape:groupmode="layer"
     inkscape:label="Demokrati_Stanovy"
     transform="matrix(1.3333333,0,0,-1.3333333,-209.28386,927.88144)"><g
       id="g24264"
       style="fill:#4f178f;fill-opacity:1"><g
         id="g24266"
         clip-path="url(#clipPath24270)"
         style="fill:#4f178f;fill-opacity:1"><g
           id="g24272"
           transform="translate(190.7269,471.8984)"
           style="fill:#4f178f;fill-opacity:1"><path
             d="m 0,0 c 0,-8.514 -5.79,-18.487 -21.017,-18.487 h -12.747 l 7.152,32.45 H -14.06 C -6.86,13.963 0,8.417 0,0 m -7.2,-0.438 c 0,4.719 -3.357,8.32 -8.174,8.32 h -5.643 l -4.476,-20.288 h 5.741 c 7.832,0 12.552,5.498 12.552,11.968"
             style="fill:#4f178f;fill-opacity:1;fill-rule:nonzero;stroke:none"
             id="path24274" /></g></g></g><g
       id="g24276"
       transform="translate(199.4832,485.8614)"
       style="fill:#4f178f;fill-opacity:1"><path
         d="M 0,0 H 22.963 L 21.601,-5.936 H 5.595 L 4.087,-12.99 h 15.665 l -1.313,-5.935 H 2.725 L 1.07,-26.466 H 17.077 L 15.812,-32.45 H -7.152 Z"
         style="fill:#4f178f;fill-opacity:1;fill-rule:nonzero;stroke:none"
         id="path24278" /></g><g
       id="g24280"
       transform="translate(255.0908,477.1528)"
       style="fill:#4f178f;fill-opacity:1"><path
         d="m 0,0 -14.352,-23.742 h -3.016 L -21.309,0 -26.515,-23.742 h -6.908 l 7.152,32.451 h 9.438 L -13.525,-11.919 -1.07,8.709 H 8.903 L 1.752,-23.742 h -6.958 z"
         style="fill:#4f178f;fill-opacity:1;fill-rule:nonzero;stroke:none"
         id="path24282" /></g><g
       id="g24284"
       style="fill:#4f178f;fill-opacity:1"><g
         id="g24286"
         clip-path="url(#clipPath24290)"
         style="fill:#4f178f;fill-opacity:1"><g
           id="g24292"
           transform="translate(284.3296,486.3964)"
           style="fill:#4f178f;fill-opacity:1"><path
             d="m 0,0 c 8.952,0 15.909,-5.643 15.909,-14.498 0,-10.606 -8.125,-19.071 -18.828,-19.071 -9,0 -15.958,5.643 -15.958,14.546 C -18.877,-8.417 -10.703,0 0,0 m -0.438,-6.13 c -6.276,0 -11.238,-5.498 -11.238,-12.455 0,-5.497 3.941,-8.854 9.146,-8.854 6.228,0 11.239,5.498 11.239,12.455 0,5.448 -3.941,8.854 -9.147,8.854"
             style="fill:#4f178f;fill-opacity:1;fill-rule:nonzero;stroke:none"
             id="path24294" /></g></g></g><g
       id="g24296"
       transform="translate(314.2499,466.6928)"
       style="fill:#4f178f;fill-opacity:1"><path
         d="m 0,0 -3.357,-3.308 -2.238,-9.974 h -6.908 l 7.151,32.451 H 1.557 L -1.508,5.254 12.649,19.169 h 8.903 L 5.303,3.941 15.276,-13.282 H 7.152 Z"
         style="fill:#4f178f;fill-opacity:1;fill-rule:nonzero;stroke:none"
         id="path24298" /></g><g
       id="g24300"
       style="fill:#4f178f;fill-opacity:1"><g
         id="g24302"
         clip-path="url(#clipPath24306)"
         style="fill:#4f178f;fill-opacity:1"><g
           id="g24308"
           transform="translate(347.9641,465.0387)"
           style="fill:#4f178f;fill-opacity:1"><path
             d="m 0,0 h -5.4 l -2.53,-11.628 h -6.909 l 7.152,32.451 H 6.179 c 5.254,0 10.022,-3.503 10.022,-9.147 0,-5.887 -3.99,-10.314 -9.244,-11.287 l 4.476,-12.017 H 3.795 Z m 8.952,10.995 c 0,2.287 -1.898,3.892 -4.135,3.892 H -2.092 L -4.038,5.935 h 7.2 c 3.649,0 5.79,2.141 5.79,5.06"
             style="fill:#4f178f;fill-opacity:1;fill-rule:nonzero;stroke:none"
             id="path24310" /></g></g></g><g
       id="g24312"
       transform="translate(386.641,459.0061)"
       style="fill:#4f178f;fill-opacity:1"><path
         d="m 0,0 h -14.498 l -3.259,-5.595 h -7.931 l 19.704,32.45 h 8.66 L 8.028,-5.595 H 0.827 Z M -11.287,5.984 H -0.535 L -2.676,20.92 Z"
         style="fill:#4f178f;fill-opacity:1;fill-rule:nonzero;stroke:none"
         id="path24314" /></g><g
       id="g24316"
       transform="translate(407.1233,479.7799)"
       style="fill:#4f178f;fill-opacity:1"><path
         d="m 0,0 h -9.487 l 1.362,6.082 H 17.758 L 16.444,0 H 6.957 L 1.168,-26.369 h -6.957 z"
         style="fill:#4f178f;fill-opacity:1;fill-rule:nonzero;stroke:none"
         id="path24318" /></g><g
       id="g24320"
       transform="translate(430.037,485.8614)"
       style="fill:#4f178f;fill-opacity:1"><path
         d="M 0,0 H 6.909 L -0.243,-32.45 H -7.152 Z"
         style="fill:#4f178f;fill-opacity:1;fill-rule:nonzero;stroke:none"
         id="path24322" /></g><g
       id="g24326"
       clip-path="url(#clipPath24330)"><g
         id="g24332"
         transform="translate(337.8462,671.3141)"><path
           d="M 0,0 C 10.887,0 21.602,-2.704 31.144,-7.669 19.211,12.516 -3.095,24.597 -26.154,24.597 h -59.147 l -33.7,-152.911 h 31.574 L -59.147,0 Z"
           style="fill:#fc0d5c;fill-opacity:1;fill-rule:nonzero;stroke:none"
           id="path24334" /></g><g
         id="g24336"
         transform="translate(368.9903,663.645)"><path
           d="m 0,0 c 5.625,-9.515 8.956,-20.823 8.956,-33.529 0,-40.12 -27.281,-87.116 -99.037,-87.116 h -28.49 l -5.421,-24.597 h 60.065 c 71.756,0 99.036,46.996 99.036,87.116 C 35.109,-31.192 20.194,-10.509 0,0"
           style="fill:#12e6d9;fill-opacity:1;fill-rule:nonzero;stroke:none"
           id="path24338" /></g><g
         id="g24340"
         transform="translate(377.9459,630.1155)"><path
           d="m 0,0 c 0,12.706 -3.33,24.014 -8.956,33.529 -9.541,4.966 -20.257,7.67 -31.144,7.67 h -59.147 l -28.279,-128.315 h 28.49 C -27.28,-87.116 0,-40.119 0,0"
           style="fill:#4f178f;fill-opacity:1;fill-rule:nonzero;stroke:none"
           id="path24342" /></g></g></g></svg>
